# xmcd
#
# Track frame offsets: 
#        150
#        22900
#        41022
#        56910
#        70170
#        90952
#        103312
#        119460
#        143620
#        158452
#        180395
#        200375
#        207220
#        217315
#        229927
#
# Disc length: 3176 seconds
#
# Revision: 3
# Processed by: cddbd v1.5.2PL0 Copyright (c) Steve Scherf et al.
# Submitted via: ExactAudioCopyFreeDBPlugin 1.0
#
DISCID=d00c660f
DTITLE=Tin Hat Trio - The Rodeo Eroded
DYEAR=2002
DGENRE=Jazz
TTITLE0=Bill
TTITLE1=Fear of the South
TTITLE2=Holiday Joel
TTITLE3=Happy Hour
TTITLE4=Willow Weep for Me
TTITLE5=Nickel Mountain
TTITLE6=O.N.E.O.
TTITLE7=The Last Cowboy
TTITLE8=Maximo's Plunge
TTITLE9=Rubies, Pearls, and Emeralds
TTITLE10=Manmoth
TTITLE11=Interlude
TTITLE12=Under the Gun
TTITLE13=Night of the Skeptic
TTITLE14=Sweep
EXTD=
EXTT0=
EXTT1=
EXTT2=
EXTT3=
EXTT4=
EXTT5=
EXTT6=
EXTT7=
EXTT8=
EXTT9=
EXTT10=
EXTT11=
EXTT12=
EXTT13=
EXTT14=
PLAYORDER=
